<svg width="19" height="36" viewBox="0 0 19 36" fill="none" xmlns="http://www.w3.org/2000/svg">
<path d="M0.865208 33.3125C0.865718 32.7325 1.09652 32.1765 1.50687 31.7667L12.6952 20.5783C13.0339 20.2398 13.3025 19.8378 13.4858 19.3954C13.6691 18.953 13.7634 18.4789 13.7634 18C13.7634 17.5211 13.6691 17.047 13.4858 16.6046C13.3025 16.1622 13.0339 15.7602 12.6952 15.4217L1.52146 4.24063C1.12299 3.82806 0.902499 3.27549 0.907483 2.70194C0.912467 2.12838 1.14252 1.57973 1.5481 1.17415C1.95368 0.768571 2.50234 0.538514 3.07589 0.53353C3.64945 0.528546 4.20201 0.749034 4.61458 1.1475L15.7883 12.3198C17.2908 13.8252 18.1346 15.8651 18.1346 17.992C18.1346 20.1188 17.2908 22.1588 15.7883 23.6642L4.6 34.8525C4.29451 35.1582 3.90531 35.3666 3.48153 35.4513C3.05774 35.536 2.61835 35.4933 2.21882 35.3285C1.81928 35.1638 1.47749 34.8844 1.23658 34.5256C0.995679 34.1668 0.866451 33.7447 0.865208 33.3125Z" fill="#563e00"/>
</svg>
