<svg width="36" height="36" viewBox="0 0 36 36" fill="none" xmlns="http://www.w3.org/2000/svg">
<path d="M32.3971 35.9927C31.4757 35.9927 30.5543 35.6424 29.8512 34.9393L18.0024 23.0881L6.14883 34.9393C4.74272 36.3455 2.46558 36.3455 1.05946 34.9393C-0.346654 33.5332 -0.346654 31.2537 1.05946 29.85L15.459 15.4529C16.1332 14.7786 17.0498 14.3995 18.0048 14.3995C18.9574 14.3995 19.8741 14.7786 20.5507 15.4529L34.9454 29.85C36.3515 31.2561 36.3515 33.5356 34.9454 34.9393C34.2424 35.6424 33.3209 35.9927 32.3995 35.9927H32.3971ZM34.9574 17.4973C36.3539 16.0839 36.3395 13.8044 34.9238 12.4079L25.5129 3.11457C23.5045 1.10618 20.8387 0 17.9976 0C15.1566 0 12.4908 1.10618 10.5016 3.09777L1.07146 12.4079C-0.344254 13.8044 -0.358651 16.0839 1.03787 17.4973C2.43199 18.913 4.71632 18.925 6.12724 17.5309L15.5765 8.20394C16.8651 6.9106 19.111 6.89381 20.4355 8.22074L29.8656 17.5309C30.5663 18.2243 31.4805 18.5698 32.3947 18.5698C33.3233 18.5698 34.252 18.2123 34.955 17.4997L34.9574 17.4973Z" fill="#563E00"/>
</svg>
