<svg width="239" height="45" viewBox="0 0 239 45" fill="none" xmlns="http://www.w3.org/2000/svg">
<path d="M6.08 35C5.49333 35 5 34.8 4.6 34.4C4.2 34 4 33.5067 4 32.92V5.84C4 5.22667 4.2 4.73333 4.6 4.36C5 3.96 5.49333 3.76 6.08 3.76H14.08C16.08 3.76 17.8533 4.2 19.4 5.08C20.9467 5.96 22.1467 7.18667 23 8.76C23.88 10.3067 24.32 12.0933 24.32 14.12C24.32 16.0667 23.88 17.8 23 19.32C22.1467 20.84 20.9467 22.0267 19.4 22.88C17.8533 23.7333 16.08 24.16 14.08 24.16H8.16V32.92C8.16 33.5067 7.96 34 7.56 34.4C7.18667 34.8 6.69333 35 6.08 35ZM8.16 20.32H14.08C15.3067 20.32 16.3867 20.0533 17.32 19.52C18.2533 18.9867 18.9867 18.2533 19.52 17.32C20.0533 16.3867 20.32 15.32 20.32 14.12C20.32 12.84 20.0533 11.72 19.52 10.76C18.9867 9.77333 18.2533 9 17.32 8.44C16.3867 7.88 15.3067 7.6 14.08 7.6H8.16V20.32ZM38.8606 35.16C36.914 35.16 35.1673 34.68 33.6206 33.72C32.074 32.7333 30.8473 31.4133 29.9406 29.76C29.0606 28.08 28.6206 26.1867 28.6206 24.08C28.6206 21.9733 29.1006 20.08 30.0606 18.4C31.0473 16.72 32.3673 15.4 34.0206 14.44C35.7006 13.4533 37.5806 12.96 39.6606 12.96C41.7406 12.96 43.6073 13.4533 45.2606 14.44C46.914 15.4 48.2206 16.72 49.1806 18.4C50.1673 20.08 50.6606 21.9733 50.6606 24.08H49.1006C49.1006 26.1867 48.6473 28.08 47.7406 29.76C46.8606 31.4133 45.6473 32.7333 44.1006 33.72C42.554 34.68 40.8073 35.16 38.8606 35.16ZM39.6606 31.56C41.0206 31.56 42.234 31.24 43.3006 30.6C44.3673 29.9333 45.2073 29.04 45.8206 27.92C46.434 26.7733 46.7406 25.4933 46.7406 24.08C46.7406 22.64 46.434 21.36 45.8206 20.24C45.2073 19.0933 44.3673 18.2 43.3006 17.56C42.234 16.8933 41.0206 16.56 39.6606 16.56C38.3273 16.56 37.114 16.8933 36.0206 17.56C34.954 18.2 34.1006 19.0933 33.4606 20.24C32.8473 21.36 32.5406 22.64 32.5406 24.08C32.5406 25.4933 32.8473 26.7733 33.4606 27.92C34.1006 29.04 34.954 29.9333 36.0206 30.6C37.114 31.24 38.3273 31.56 39.6606 31.56ZM48.6206 35.04C48.034 35.04 47.5406 34.8533 47.1406 34.48C46.7673 34.08 46.5806 33.5867 46.5806 33V26.88L47.3406 22.64L50.6606 24.08V33C50.6606 33.5867 50.4606 34.08 50.0606 34.48C49.6873 34.8533 49.2073 35.04 48.6206 35.04ZM66.6928 35C65.3595 35 64.1595 34.6667 63.0928 34C62.0261 33.3067 61.1861 32.3733 60.5728 31.2C59.9595 30.0267 59.6528 28.7067 59.6528 27.24V8.16C59.6528 7.57333 59.8395 7.09333 60.2128 6.72C60.5861 6.34667 61.0661 6.16 61.6528 6.16C62.2395 6.16 62.7195 6.34667 63.0928 6.72C63.4661 7.09333 63.6528 7.57333 63.6528 8.16V27.24C63.6528 28.3067 63.9461 29.2 64.5328 29.92C65.1195 30.64 65.8395 31 66.6928 31H68.0528C68.5328 31 68.9328 31.1867 69.2528 31.56C69.5995 31.9333 69.7728 32.4133 69.7728 33C69.7728 33.5867 69.5461 34.0667 69.0928 34.44C68.6661 34.8133 68.1061 35 67.4128 35H66.6928ZM57.8128 17.36C57.2528 17.36 56.7995 17.2 56.4528 16.88C56.1061 16.56 55.9328 16.16 55.9328 15.68C55.9328 15.1467 56.1061 14.72 56.4528 14.4C56.7995 14.08 57.2528 13.92 57.8128 13.92H67.0528C67.6128 13.92 68.0661 14.08 68.4128 14.4C68.7595 14.72 68.9328 15.1467 68.9328 15.68C68.9328 16.16 68.7595 16.56 68.4128 16.88C68.0661 17.2 67.6128 17.36 67.0528 17.36H57.8128ZM79.2275 35C78.6408 35 78.1475 34.8133 77.7475 34.44C77.3742 34.04 77.1875 33.5467 77.1875 32.96V15.16C77.1875 14.5467 77.3742 14.0533 77.7475 13.68C78.1475 13.3067 78.6408 13.12 79.2275 13.12C79.8408 13.12 80.3342 13.3067 80.7075 13.68C81.0808 14.0533 81.2675 14.5467 81.2675 15.16V32.96C81.2675 33.5467 81.0808 34.04 80.7075 34.44C80.3342 34.8133 79.8408 35 79.2275 35ZM79.2275 9.56C78.5075 9.56 77.8808 9.30667 77.3475 8.8C76.8408 8.26667 76.5875 7.64 76.5875 6.92C76.5875 6.2 76.8408 5.58667 77.3475 5.08C77.8808 4.54667 78.5075 4.28 79.2275 4.28C79.9475 4.28 80.5608 4.54667 81.0675 5.08C81.6008 5.58667 81.8675 6.2 81.8675 6.92C81.8675 7.64 81.6008 8.26667 81.0675 8.8C80.5608 9.30667 79.9475 9.56 79.2275 9.56ZM109.338 35.04C108.751 35.04 108.258 34.8533 107.858 34.48C107.484 34.08 107.298 33.5867 107.298 33V23.16C107.298 21.64 107.018 20.4 106.458 19.44C105.898 18.48 105.138 17.7733 104.178 17.32C103.244 16.84 102.164 16.6 100.938 16.6C99.8178 16.6 98.8045 16.8267 97.8978 17.28C96.9911 17.7333 96.2711 18.3467 95.7378 19.12C95.2045 19.8667 94.9378 20.7333 94.9378 21.72H92.4178C92.4178 20.04 92.8178 18.5467 93.6178 17.24C94.4445 15.9067 95.5645 14.8533 96.9778 14.08C98.3911 13.3067 99.9778 12.92 101.738 12.92C103.578 12.92 105.218 13.32 106.658 14.12C108.124 14.8933 109.271 16.04 110.098 17.56C110.951 19.08 111.378 20.9467 111.378 23.16V33C111.378 33.5867 111.178 34.08 110.778 34.48C110.404 34.8533 109.924 35.04 109.338 35.04ZM92.8978 35.04C92.3111 35.04 91.8178 34.8533 91.4178 34.48C91.0445 34.08 90.8578 33.5867 90.8578 33V15.16C90.8578 14.5467 91.0445 14.0533 91.4178 13.68C91.8178 13.3067 92.3111 13.12 92.8978 13.12C93.5111 13.12 94.0045 13.3067 94.3778 13.68C94.7511 14.0533 94.9378 14.5467 94.9378 15.16V33C94.9378 33.5867 94.7511 34.08 94.3778 34.48C94.0045 34.8533 93.5111 35.04 92.8978 35.04ZM122.163 27.04C121.577 27.04 121.083 26.8533 120.683 26.48C120.31 26.08 120.123 25.5867 120.123 25V5.8C120.123 5.18667 120.31 4.69333 120.683 4.32C121.083 3.94667 121.577 3.76 122.163 3.76C122.777 3.76 123.27 3.94667 123.643 4.32C124.017 4.69333 124.203 5.18667 124.203 5.8V25C124.203 25.5867 124.017 26.08 123.643 26.48C123.27 26.8533 122.777 27.04 122.163 27.04ZM138.603 35.04C138.017 35.04 137.523 34.8533 137.123 34.48C136.75 34.08 136.563 33.5867 136.563 33V23.16C136.563 21.64 136.283 20.4 135.723 19.44C135.163 18.48 134.403 17.7733 133.443 17.32C132.51 16.84 131.43 16.6 130.203 16.6C129.083 16.6 128.07 16.8267 127.163 17.28C126.257 17.7333 125.537 18.3467 125.003 19.12C124.47 19.8667 124.203 20.7333 124.203 21.72H121.683C121.683 20.04 122.083 18.5467 122.883 17.24C123.71 15.9067 124.83 14.8533 126.243 14.08C127.657 13.3067 129.243 12.92 131.003 12.92C132.843 12.92 134.483 13.32 135.923 14.12C137.39 14.8933 138.537 16.04 139.363 17.56C140.217 19.08 140.643 20.9467 140.643 23.16V33C140.643 33.5867 140.443 34.08 140.043 34.48C139.67 34.8533 139.19 35.04 138.603 35.04ZM122.163 35.04C121.577 35.04 121.083 34.8533 120.683 34.48C120.31 34.08 120.123 33.5867 120.123 33V15.16C120.123 14.5467 120.31 14.0533 120.683 13.68C121.083 13.3067 121.577 13.12 122.163 13.12C122.777 13.12 123.27 13.3067 123.643 13.68C124.017 14.0533 124.203 14.5467 124.203 15.16V33C124.203 33.5867 124.017 34.08 123.643 34.48C123.27 34.8533 122.777 35.04 122.163 35.04ZM158.548 35.16C156.601 35.16 154.855 34.68 153.308 33.72C151.761 32.7333 150.535 31.4133 149.628 29.76C148.748 28.08 148.308 26.1867 148.308 24.08C148.308 21.9733 148.788 20.08 149.748 18.4C150.735 16.72 152.055 15.4 153.708 14.44C155.388 13.4533 157.268 12.96 159.348 12.96C161.428 12.96 163.295 13.4533 164.948 14.44C166.601 15.4 167.908 16.72 168.868 18.4C169.855 20.08 170.348 21.9733 170.348 24.08H168.788C168.788 26.1867 168.335 28.08 167.428 29.76C166.548 31.4133 165.335 32.7333 163.788 33.72C162.241 34.68 160.495 35.16 158.548 35.16ZM159.348 31.56C160.708 31.56 161.921 31.24 162.988 30.6C164.055 29.9333 164.895 29.04 165.508 27.92C166.121 26.7733 166.428 25.4933 166.428 24.08C166.428 22.64 166.121 21.36 165.508 20.24C164.895 19.0933 164.055 18.2 162.988 17.56C161.921 16.8933 160.708 16.56 159.348 16.56C158.015 16.56 156.801 16.8933 155.708 17.56C154.641 18.2 153.788 19.0933 153.148 20.24C152.535 21.36 152.228 22.64 152.228 24.08C152.228 25.4933 152.535 26.7733 153.148 27.92C153.788 29.04 154.641 29.9333 155.708 30.6C156.801 31.24 158.015 31.56 159.348 31.56ZM168.308 35.04C167.721 35.04 167.228 34.8533 166.828 34.48C166.455 34.08 166.268 33.5867 166.268 33V26.88L167.028 22.64L170.348 24.08V33C170.348 33.5867 170.148 34.08 169.748 34.48C169.375 34.8533 168.895 35.04 168.308 35.04ZM186.38 35.16C184.514 35.16 182.78 34.88 181.18 34.32C179.607 33.7333 178.38 33 177.5 32.12C177.1 31.6933 176.927 31.2133 176.98 30.68C177.06 30.12 177.327 29.6667 177.78 29.32C178.314 28.8933 178.834 28.72 179.34 28.8C179.874 28.8533 180.327 29.08 180.7 29.48C181.154 29.9867 181.874 30.4667 182.86 30.92C183.874 31.3467 184.994 31.56 186.22 31.56C187.767 31.56 188.94 31.3067 189.74 30.8C190.567 30.2933 190.994 29.64 191.02 28.84C191.047 28.04 190.66 27.3467 189.86 26.76C189.087 26.1733 187.66 25.6933 185.58 25.32C182.887 24.7867 180.927 23.9867 179.7 22.92C178.5 21.8533 177.9 20.5467 177.9 19C177.9 17.64 178.3 16.52 179.1 15.64C179.9 14.7333 180.927 14.0667 182.18 13.64C183.434 13.1867 184.74 12.96 186.1 12.96C187.86 12.96 189.42 13.24 190.78 13.8C192.14 14.36 193.22 15.1333 194.02 16.12C194.394 16.5467 194.567 17 194.54 17.48C194.514 17.9333 194.287 18.32 193.86 18.64C193.434 18.9333 192.927 19.0267 192.34 18.92C191.754 18.8133 191.26 18.5733 190.86 18.2C190.194 17.56 189.474 17.12 188.7 16.88C187.927 16.64 187.034 16.52 186.02 16.52C184.847 16.52 183.847 16.72 183.02 17.12C182.22 17.52 181.82 18.1067 181.82 18.88C181.82 19.36 181.94 19.8 182.18 20.2C182.447 20.5733 182.954 20.92 183.7 21.24C184.447 21.5333 185.54 21.8267 186.98 22.12C188.98 22.52 190.554 23.0267 191.7 23.64C192.874 24.2533 193.714 24.9733 194.22 25.8C194.727 26.6 194.98 27.5333 194.98 28.6C194.98 29.8267 194.647 30.9333 193.98 31.92C193.34 32.9067 192.38 33.6933 191.1 34.28C189.847 34.8667 188.274 35.16 186.38 35.16Z" fill="#fff"/>
<g clip-path="url(#clip0_44_61)">
<path d="M217.884 17.1665C217.112 17.1555 216.367 16.8754 215.779 16.3745C214.551 15.2482 213.807 13.6898 213.703 12.0265C213.379 8.70118 215.192 6.74118 217.151 6.52251C217.623 6.46988 218.101 6.51288 218.556 6.64896C219.011 6.78503 219.433 7.01139 219.799 7.31451C220.345 7.80619 220.788 8.40096 221.103 9.06457C221.417 9.72818 221.598 10.4475 221.634 11.1812C221.932 14.2785 220.282 17.1665 217.884 17.1665ZM210.803 25.1665C210.094 25.1503 209.416 24.8675 208.906 24.3745C207.777 23.1993 207.114 21.6542 207.039 20.0265C206.746 16.7012 208.38 14.7412 210.147 14.5225C210.578 14.4733 211.014 14.5187 211.425 14.6555C211.836 14.7923 212.213 15.0172 212.528 15.3145C213.543 16.352 214.133 17.7311 214.183 19.1812C214.451 22.2785 212.811 25.1665 210.803 25.1665ZM228.114 17.1665C225.7 17.1665 224.068 14.2785 224.371 11.1772C224.407 10.4435 224.587 9.72418 224.902 9.06057C225.217 8.39696 225.66 7.80219 226.206 7.31051C226.571 7.00914 226.993 6.78412 227.446 6.64876C227.9 6.51341 228.376 6.47048 228.847 6.52251C230.806 6.74118 232.619 8.70118 232.295 12.0265C232.191 13.6902 231.447 15.249 230.219 16.3758C229.63 16.8759 228.886 17.1555 228.114 17.1665ZM235.07 25.1665C232.555 25.1665 231.3 22.2785 231.583 19.1772C231.639 17.7178 232.25 16.3348 233.291 15.3105C233.621 15.011 234.012 14.7854 234.436 14.6488C234.861 14.5122 235.309 14.4678 235.752 14.5185C237.576 14.7372 239.266 16.6972 238.964 20.0225C238.88 21.6617 238.19 23.2113 237.03 24.3718C236.496 24.868 235.798 25.1508 235.07 25.1665ZM228.332 38.4998C227.193 38.5223 226.067 38.244 225.07 37.6932C224.431 37.3569 223.721 37.1811 222.999 37.1811C222.277 37.1811 221.567 37.3569 220.928 37.6932C216.911 39.9425 212.228 37.4692 212.332 31.8332C212.332 25.6518 218.342 19.8332 222.999 19.8332C227.656 19.8332 233.666 25.6518 233.666 31.8332C233.666 35.7585 231.472 38.4998 228.332 38.4998Z" fill="#1F1600"/>
</g>
<defs>
<clipPath id="clip0_44_61">
<rect width="32" height="32" fill="white" transform="translate(207 6.5)"/>
</clipPath>
</defs>
</svg>
