<svg width="32" height="33" viewBox="0 0 32 33" fill="none" xmlns="http://www.w3.org/2000/svg">
<g clip-path="url(#clip0_301_65)">
<path d="M10.8843 11.1665C10.1118 11.1555 9.36725 10.8754 8.77901 10.3745C7.55071 9.24822 6.80662 7.68979 6.70301 6.02651C6.37901 2.70118 8.19234 0.741176 10.151 0.52251C10.623 0.469878 11.1007 0.512884 11.5556 0.648959C12.0106 0.785035 12.4335 1.01139 12.799 1.31451C13.3447 1.80619 13.7877 2.40096 14.1026 3.06457C14.4175 3.72818 14.598 4.44752 14.6337 5.18118C14.9323 8.27851 13.2817 11.1665 10.8843 11.1665ZM3.80301 19.1665C3.09351 19.1503 2.41614 18.8675 1.90567 18.3745C0.776997 17.1993 0.113637 15.6542 0.0390073 14.0265C-0.254326 10.7012 1.38034 8.74118 3.14701 8.52251C3.57766 8.47331 4.01385 8.51869 4.42515 8.65548C4.83645 8.79227 5.21294 9.01718 5.52834 9.31451C6.54271 10.352 7.13285 11.7311 7.18301 13.1812C7.45101 16.2785 5.81101 19.1665 3.80301 19.1665ZM21.1137 11.1665C18.7003 11.1665 17.0683 8.27851 17.371 5.17718C17.4067 4.44352 17.5872 3.72418 17.9021 3.06057C18.217 2.39696 18.66 1.80219 19.2057 1.31051C19.5708 1.00914 19.9928 0.784117 20.4465 0.648763C20.9002 0.513408 21.3764 0.470476 21.847 0.52251C23.8057 0.741176 25.619 2.70118 25.295 6.02651C25.1913 7.69016 24.4473 9.24898 23.219 10.3758C22.6304 10.8759 21.886 11.1555 21.1137 11.1665ZM28.0697 19.1665C25.555 19.1665 24.3003 16.2785 24.583 13.1772C24.6391 11.7178 25.25 10.3348 26.291 9.31051C26.6213 9.01097 27.0117 8.78537 27.4362 8.64879C27.8606 8.51221 28.3093 8.46779 28.7523 8.51851C30.5763 8.73718 32.2657 10.6972 31.9643 14.0225C31.8796 15.6617 31.1904 17.2113 30.0297 18.3718C29.4958 18.868 28.7983 19.1508 28.0697 19.1665ZM21.3323 32.4998C20.1928 32.5223 19.0675 32.244 18.0697 31.6932C17.4313 31.3569 16.7206 31.1811 15.999 31.1811C15.2774 31.1811 14.5667 31.3569 13.9283 31.6932C9.91101 33.9425 5.22834 31.4692 5.33234 25.8332C5.33234 19.6518 11.3417 13.8332 15.999 13.8332C20.6563 13.8332 26.6657 19.6518 26.6657 25.8332C26.6657 29.7585 24.4723 32.4998 21.3323 32.4998Z" fill="#7C4B00"/>
</g>
<defs>
<clipPath id="clip0_301_65">
<rect width="32" height="32" fill="white" transform="translate(0 0.5)"/>
</clipPath>
</defs>
</svg>
