<svg width="67" height="61" viewBox="0 0 67 61" fill="none" xmlns="http://www.w3.org/2000/svg">
<g clip-path="url(#clip0_18_13)">
<path d="M15.2257 24.5372C14.6087 19.1667 11.203 16.0582 7.30862 16.0582V16.0634C7.0736 16.0631 6.83883 16.0741 6.60512 16.0964C2.42599 16.4877 -0.558256 20.285 0.0893672 25.9759C0.714744 31.4201 4.32987 35.5834 8.3025 35.5834C8.48243 35.5837 8.66236 35.5751 8.84125 35.558C13.0287 35.1614 15.879 30.2204 15.2257 24.5372ZM8.25774 30.4695C6.6258 29.2209 5.84116 27.4704 5.64199 25.4471C5.64199 24.1672 5.62865 22.9043 6.25337 21.7667C6.60054 21.1722 7.02387 21.1619 7.18574 21.1466L7.30914 21.1447C8.24989 21.1447 9.39112 22.608 9.67312 25.0632C9.86627 26.9756 9.56856 28.9397 8.25774 30.4695Z" fill="#563E00"/>
<path d="M23.637 21.4771C23.8352 21.4771 24.0306 21.4771 24.2289 21.4491C28.8267 21.012 31.9701 15.583 31.2527 9.32538C30.5744 3.42112 26.8279 0 22.5455 0C22.2881 0.000238281 22.0309 0.0128672 21.775 0.038125C17.1744 0.47275 13.8857 4.64875 14.6032 10.9089C15.2927 16.897 19.2625 21.4771 23.637 21.4771ZM20.9124 5.99838C21.1936 5.49381 21.733 5.15045 22.3501 5.08338C22.4152 5.07968 22.4804 5.07968 22.5455 5.08338C23.8409 5.08338 25.3371 6.72275 25.7001 9.85413C25.9609 11.6754 25.6472 13.5266 24.7956 15.1916C24.2875 16.0685 23.7766 16.3735 23.6371 16.3863C22.9196 16.3863 20.611 14.3174 20.1559 10.3726C19.8648 8.87848 20.1311 7.33871 20.9124 5.99838Z" fill="#563E00"/>
<path d="M42.8914 21.4491C43.0896 21.4669 43.2877 21.4771 43.4832 21.4771C47.8522 21.4771 51.8304 16.9021 52.5171 10.9089C53.2346 4.64875 49.946 0.47275 45.3509 0.038125C45.094 0.0128672 44.8359 0.000119141 44.5776 0C40.2924 0 36.546 3.42112 35.8676 9.32538C35.1501 15.583 38.2935 21.017 42.8914 21.4491ZM41.423 9.8515C41.7804 6.72275 43.2711 5.08338 44.5776 5.08338C44.6417 5.07956 44.7061 5.07956 44.7702 5.08338C45.3867 5.14986 45.9261 5.49227 46.208 5.99587C46.9921 7.33537 47.2587 8.87598 46.9645 10.3701C46.5122 14.3148 44.2007 16.3838 43.4721 16.3838C43.3437 16.3838 42.8329 16.066 42.3247 15.1891C41.4728 13.5241 41.16 11.6726 41.423 9.8515Z" fill="#563E00"/>
<path d="M33.5 27.9584C20.8202 27.9584 8.375 39.7542 8.35825 51.7712C8.01212 59.902 15.6166 62.8479 24.8291 59.8486C30.4453 58.105 36.538 58.105 42.1543 59.8486C44.318 60.5138 46.573 60.9012 48.8543 61C56.9305 61 58.625 55.9802 58.625 51.7712C58.625 39.7542 46.1797 27.9584 33.5 27.9584ZM33.5 53.375C27.2076 52.4676 13.333 60.5755 13.9584 51.7712C13.9584 42.4941 23.8214 33.0417 33.5 33.0417C43.1786 33.0417 53.0416 42.4942 53.0416 51.7712C53.6726 60.5679 39.8231 52.4778 33.5 53.375Z" fill="#563E00"/>
<path d="M61.3354 18.7844L61.3341 18.7894C61.1055 18.7397 60.8743 18.7013 60.6412 18.6737C56.4757 18.1767 52.6096 21.2447 51.7976 26.9179C51.0263 32.3467 53.489 37.157 57.3544 37.9914C57.5295 38.0296 57.7066 38.0591 57.8852 38.0798C62.0601 38.5737 66.0858 34.3648 66.8903 28.6976C67.651 23.3425 65.1247 19.6024 61.3354 18.7844ZM61.3541 28.0433C61.0575 29.9444 60.2701 31.7931 58.6069 33.0062C57.3354 31.4485 57.0156 29.5805 57.3344 27.57C57.6588 26.3246 57.9659 25.0929 58.8619 24.1174C59.3504 23.6119 59.765 23.6906 59.9263 23.7098L60.0469 23.734C60.9624 23.9315 61.702 25.5951 61.3541 28.0433Z" fill="#563E00"/>
</g>
<defs>
<clipPath id="clip0_18_13">
<rect width="67" height="61" fill="white"/>
</clipPath>
</defs>
</svg>
