<svg width="68" height="62" viewBox="0 0 68 62" fill="none" xmlns="http://www.w3.org/2000/svg">
<path d="M23.7908 26.1019C22.1737 26.0817 20.6156 25.614 19.3828 24.7787C16.8113 22.8969 15.2534 20.2933 15.0362 17.5145C14.3578 11.961 18.1545 8.68419 22.2554 8.31886C23.2435 8.23144 24.2436 8.30353 25.1961 8.53085C26.1485 8.75818 27.034 9.13608 27.7997 9.64206C28.942 10.4637 29.8694 11.4574 30.5286 12.5661C31.1879 13.6747 31.5659 14.8765 31.641 16.1022C32.2663 21.2791 29.2737 26.1019 23.7908 26.1019ZM22.8752 12.7362C21.2644 12.8788 20.304 14.7032 20.5944 17.0712C20.6753 18.662 21.4976 20.1714 22.9003 21.3036C23.166 21.5119 23.5192 21.6342 23.8913 21.6467C24.8712 21.5598 26.4485 19.5505 26.0772 16.5232C25.1225 12.3664 22.945 12.7362 22.8752 12.7474V12.7362ZM9.8325 39.4676C8.2154 39.4475 6.65728 38.9797 5.42445 38.1444C2.85294 36.2626 1.29505 33.659 1.07783 30.8802C0.39945 25.3267 4.19612 22.0499 8.29708 21.6846C9.28514 21.5982 10.2849 21.6708 11.2372 21.898C12.1895 22.1253 13.075 22.5027 13.8413 23.0078C14.9836 23.8294 15.911 24.8231 16.5703 25.9318C17.2295 27.0405 17.6076 28.2422 17.6827 29.4679C18.308 34.6449 15.173 39.4676 9.8325 39.4676ZM8.91683 26.1019C7.30604 26.2445 6.3457 28.0689 6.63604 30.4369C6.71691 32.0277 7.53925 33.5371 8.94195 34.6694C9.21031 34.8745 9.56188 34.9962 9.933 35.0124C10.9129 34.9255 12.4902 32.9162 12.1189 29.8889C11.3791 25.8168 8.98662 26.1019 8.91683 26.1131V26.1019ZM45.2085 26.1019C40.4403 26.1287 36.7386 21.2769 37.3723 16.0955C37.4474 14.8698 37.8254 13.6681 38.4847 12.5594C39.1439 11.4507 40.0714 10.457 41.2136 9.63538C41.9786 9.13243 42.862 8.75681 43.8119 8.5307C44.7617 8.30459 45.7587 8.23256 46.7439 8.31886C50.8449 8.68419 54.6416 11.961 53.9632 17.5145C53.7467 20.2941 52.1887 22.8986 49.6166 24.781C48.3833 25.6154 46.8253 26.0824 45.2085 26.1019ZM42.9305 16.5232C42.5592 19.5416 44.1365 21.5509 45.1164 21.6467C45.4815 21.6352 45.8297 21.5208 46.0991 21.3237C47.5018 20.1914 48.3241 18.682 48.405 17.0912C48.9912 11.2526 43.433 11.6336 42.9305 16.5232ZM59.1668 39.4676C53.9688 39.4676 50.6969 34.6426 51.3306 29.4612C51.4057 28.2355 51.7838 27.0338 52.443 25.9251C53.1022 24.8164 54.0297 23.8227 55.172 23.0011C55.9358 22.4963 56.8189 22.1191 57.7689 21.8918C58.7189 21.6645 59.7164 21.5917 60.7023 21.6779C64.8032 22.0432 68.5999 25.32 67.9215 30.8735C67.705 33.6531 66.147 36.2576 63.5749 38.14C62.3428 38.9769 60.7846 39.4462 59.1668 39.4676ZM56.8888 29.8889C56.5176 32.9073 58.0948 34.9166 59.0747 35.0124C59.4388 34.9971 59.7854 34.8831 60.0574 34.6894C61.4601 33.5571 62.2824 32.0477 62.3633 30.4569C62.6425 28.089 61.6933 26.2646 60.0825 26.122C60.0127 26.1019 57.1541 25.9037 56.8888 29.8889ZM45.6663 61.7438C43.28 61.7819 40.9234 61.3162 38.8351 60.3939C37.4985 59.832 36.0104 59.5384 34.4997 59.5384C32.9889 59.5384 31.5009 59.832 30.1642 60.3939C21.7529 64.1563 11.9486 60.0219 12.1663 50.6057C12.1663 40.2807 24.7484 30.5572 34.4997 30.5572C44.251 30.5572 56.833 40.2785 56.833 50.6057C56.833 57.1639 52.2407 61.7438 45.6663 61.7438ZM34.4997 55.061C36.8856 55.0235 39.2417 55.4884 41.3309 56.4087C47.5758 59.1219 51.3474 55.4441 51.2497 50.6057C51.2497 43.0764 41.4202 35.0124 34.4997 35.0124C27.5791 35.0124 17.7497 43.0764 17.7497 50.6057C17.6603 55.4374 21.4012 59.1219 27.6685 56.4087C29.7576 55.4884 32.1138 55.0235 34.4997 55.061Z" fill="#563E00"/>
<path d="M14.9269 24.4994L1.75275 26.9022L7.39881 13.9871L7.86785 15.2168C9.28183 18.924 11.7323 22.1463 14.9269 24.4994Z" fill="#563E00"/>
<path d="M66.4943 25.1001L54.4494 26.3015L60.0955 14.8881L60.2704 15.4742C61.3852 19.2105 63.5447 22.5503 66.4943 25.1001Z" fill="#563E00"/>
<path d="M52.0449 11.8845L40 13.086L45.6461 1.67255L45.8209 2.25864C46.9358 5.9949 49.0953 9.33469 52.0449 11.8845Z" fill="#563E00"/>
<path d="M29.0449 10.988L17 12.1894L22.6461 0.77597L22.8209 1.36207C23.9358 5.09832 26.0953 8.43812 29.0449 10.988Z" fill="#563E00"/>
</svg>
