<svg width="32" height="32" viewBox="0 0 32 32" fill="none" xmlns="http://www.w3.org/2000/svg">
<g clip-path="url(#clip0_32_204)">
<path d="M31.6093 29.724L23.6507 21.7653C25.8195 19.1128 26.8858 15.7281 26.6291 12.3114C26.3724 8.89472 24.8123 5.70739 22.2714 3.40871C19.7306 1.11003 16.4035 -0.124129 12.9782 -0.0384868C9.55292 0.0471556 6.2916 1.44605 3.86882 3.86883C1.44603 6.29162 0.0471404 9.55294 -0.038502 12.9782C-0.124144 16.4035 1.11001 19.7306 3.40869 22.2715C5.70737 24.8123 8.89471 26.3724 12.3114 26.6291C15.7281 26.8859 19.1128 25.8195 21.7653 23.6507L29.724 31.6094C29.9755 31.8522 30.3123 31.9866 30.6619 31.9836C31.0115 31.9805 31.3459 31.8403 31.5931 31.5931C31.8403 31.3459 31.9805 31.0115 31.9836 30.6619C31.9866 30.3123 31.8522 29.9755 31.6093 29.724ZM13.3333 24C11.2237 24 9.16137 23.3744 7.40725 22.2024C5.65313 21.0303 4.28595 19.3644 3.47862 17.4153C2.67128 15.4662 2.46005 13.3215 2.87162 11.2524C3.2832 9.18325 4.2991 7.28264 5.79086 5.79088C7.28262 4.29912 9.18324 3.28321 11.2524 2.87164C13.3215 2.46006 15.4662 2.6713 17.4153 3.47863C19.3644 4.28597 21.0303 5.65314 22.2023 7.40726C23.3744 9.16139 24 11.2237 24 13.3333C23.9968 16.1613 22.872 18.8726 20.8723 20.8723C18.8726 22.872 16.1613 23.9968 13.3333 24Z" fill="white"/>
</g>
<defs>
<clipPath id="clip0_32_204">
<rect width="32" height="32" fill="white"/>
</clipPath>
</defs>
</svg>
