<svg width="67" height="67" viewBox="0 0 67 67" fill="none" xmlns="http://www.w3.org/2000/svg">
<g clip-path="url(#clip0_21_75)">
<path d="M33.5 67C15.0275 67 0 51.9725 0 33.5C0 15.0275 15.0275 0 33.5 0C51.9725 0 67 15.0275 67 33.5C67 51.9725 51.9725 67 33.5 67ZM33.5 5.58333C18.1068 5.58333 5.58333 18.1068 5.58333 33.5C5.58333 48.8932 18.1068 61.4167 33.5 61.4167C48.8932 61.4167 61.4167 48.8932 61.4167 33.5C61.4167 18.1068 48.8932 5.58333 33.5 5.58333ZM45.4846 38.511L49.8396 39.0833C51.5286 39.0833 52.8965 37.7154 52.8965 36.0265L53.0445 33.1287C53.0445 31.0433 52.1679 29.1757 50.8 27.8078C43.7733 20.7812 23.7738 20.2396 16.2084 27.8078C14.8405 29.1757 13.9611 31.0433 13.9639 33.1287L14.1119 36.0265C14.1119 37.7154 15.4798 39.0833 17.1688 39.0833L21.5238 38.511C23.2127 38.511 24.5806 37.1431 24.5806 35.4542L24.9938 31.0489C30.9428 28.5085 36.6071 28.6257 42.0202 31.0489L42.4333 35.4542C42.4333 37.1431 43.8013 38.511 45.4902 38.511H45.4846Z" fill="#563E00"/>
</g>
<defs>
<clipPath id="clip0_21_75">
<rect width="67" height="67" fill="white"/>
</clipPath>
</defs>
</svg>
